<svg id="Layer_1" height="512" viewBox="0 0 128 128" width="512" xmlns="http://www.w3.org/2000/svg" data-name="Layer 1"><path d="m115.126 62.8c-.926-.984-23.026-24.065-50.843-24.065a57.232 57.232 0 0 0 -19.476 3.6l-12.945-12.947a1.749 1.749 0 0 0 -2.474 2.474l11.873 11.874a90.873 90.873 0 0 0 -27.821 19.064 1.75 1.75 0 0 0 0 2.4c.927.983 23.032 24.064 50.843 24.064a57.007 57.007 0 0 0 19.054-3.453l12.8 12.8a1.749 1.749 0 0 0 2.474-2.474l-11.705-11.705a90.735 90.735 0 0 0 28.22-19.232 1.748 1.748 0 0 0 0-2.4zm-50.843 22.965c-22.752 0-42.145-17.04-47.083-21.765a89.4 89.4 0 0 1 26.775-17.55l5.153 5.15a19.342 19.342 0 0 0 27.242 27.244l4.185 4.185a52.26 52.26 0 0 1 -16.272 2.736zm-10.194-34.15a15.838 15.838 0 0 1 22.269 22.268zm19.79 24.739a15.837 15.837 0 0 1 -22.26-22.261zm10.309 5.359-5.342-5.342a19.34 19.34 0 0 0 -27.246-27.244l-4.01-4.011a52.482 52.482 0 0 1 16.692-2.881c22.752 0 42.146 17.04 47.084 21.766-3.401 3.259-13.666 12.368-27.178 17.712z"/></svg>